<?xml version="1.0" encoding="UTF-8" standalone="no"?>
<!-- Created with Inkscape (http://www.inkscape.org/) -->

<svg
   xmlns:dc="http://purl.org/dc/elements/1.1/"
   xmlns:cc="http://creativecommons.org/ns#"
   xmlns:rdf="http://www.w3.org/1999/02/22-rdf-syntax-ns#"
   xmlns:svg="http://www.w3.org/2000/svg"
   xmlns="http://www.w3.org/2000/svg"
   xmlns:sodipodi="http://sodipodi.sourceforge.net/DTD/sodipodi-0.dtd"
   xmlns:inkscape="http://www.inkscape.org/namespaces/inkscape"
   version="1.1"
   id="svg2"
   xml:space="preserve"
   width="323.67706"
   height="183.46399"
   viewBox="0 0 323.67706 183.46399"
   sodipodi:docname="logo_reducido.svg"
   inkscape:version="0.92.2 (5c3e80d, 2017-08-06)"><metadata
     id="metadata8"><rdf:RDF><cc:Work
         rdf:about=""><dc:format>image/svg+xml</dc:format><dc:type
           rdf:resource="http://purl.org/dc/dcmitype/StillImage" /><dc:title /></cc:Work></rdf:RDF></metadata><defs
     id="defs6"><clipPath
       clipPathUnits="userSpaceOnUse"
       id="clipPath20"><path
         d="M 0,0 H 841.89 V 595.28 H 0 Z"
         id="path18"
         inkscape:connector-curvature="0" /></clipPath><clipPath
       clipPathUnits="userSpaceOnUse"
       id="clipPath26"><path
         d="M 299,228 H 543 V 366 H 299 Z"
         id="path24"
         inkscape:connector-curvature="0" /></clipPath><clipPath
       clipPathUnits="userSpaceOnUse"
       id="clipPath30"><path
         d="M 0,595.28 H 841.89 V 0 H 0 Z"
         id="path28"
         inkscape:connector-curvature="0" /></clipPath><clipPath
       clipPathUnits="userSpaceOnUse"
       id="clipPath34"><path
         d="M 0,0 H 842 V 596 H 0 Z"
         id="path32"
         inkscape:connector-curvature="0" /></clipPath></defs><sodipodi:namedview
     pagecolor="#ffffff"
     bordercolor="#666666"
     borderopacity="1"
     objecttolerance="10"
     gridtolerance="10"
     guidetolerance="10"
     inkscape:pageopacity="0"
     inkscape:pageshadow="2"
     inkscape:window-width="1880"
     inkscape:window-height="1051"
     id="namedview4"
     showgrid="false"
     inkscape:zoom="0.29733907"
     inkscape:cx="-882.42941"
     inkscape:cy="92.638279"
     inkscape:window-x="40"
     inkscape:window-y="0"
     inkscape:window-maximized="1"
     inkscape:current-layer="g10" /><g
     id="g10"
     inkscape:groupmode="layer"
     inkscape:label="FINAL_logo_aindustriosa"
     transform="matrix(1.3333333,0,0,-1.3333333,-399.42706,487.67905)"><g
       id="g12" /><g
       id="g14"><g
         id="g16"
         clip-path="url(#clipPath20)"><g
           id="g22" /><g
           id="g60"><g
             clip-path="url(#clipPath26)"
             id="g58"><g
               id="g36" /><g
               id="g56"><g
                 clip-path="url(#clipPath30)"
                 id="g54"><g
                   clip-path="url(#clipPath34)"
                   id="g52"><path
                     d="m 420.8691,287.7803 6.01,-24.854 h -11.859 z m -13.976,-59.619 c 1.52,6.496 2.272,9.801 2.272,9.905 h 23.398 l 0.326,-0.325 2.111,-9.58 h 37.205 l -32.495,137.598 h -50.199 l -5.686,-24.851 h 12.351 l -26.483,-112.747 z"
                     style="fill:#4c4e52;fill-opacity:1;fill-rule:nonzero;stroke:none"
                     id="path38"
                     inkscape:connector-curvature="0" /><path
                     d="m 357.2939,279.3096 -11.495,-11.497 h -25.016 c -1.373,3.394 -4.514,5.86 -8.59,5.86 -4.954,0 -8.792,-4.049 -8.792,-8.789 0,-4.953 3.838,-9.026 8.792,-9.026 4.536,0 8.127,2.932 8.809,6.985 h 26.823 l 11.498,11.737 h 1.589 l 1.111,4.73 z"
                     style="fill:#b28c50;fill-opacity:1;fill-rule:nonzero;stroke:none"
                     id="path40"
                     inkscape:connector-curvature="0" /><path
                     d="m 356.1943,306.5937 -11.734,11.521 h -27.069 c -0.908,4.052 -4.519,7.204 -8.807,7.204 -4.941,0 -9.014,-4.051 -9.014,-9.009 0,-4.979 4.073,-8.809 9.014,-8.809 3.831,0 7.219,2.25 8.365,5.857 h 25.461 l 11.515,-11.713 h 13.344 l 1.162,4.949 z"
                     style="fill:#b28c50;fill-opacity:1;fill-rule:nonzero;stroke:none"
                     id="path42"
                     inkscape:connector-curvature="0" /><path
                     d="m 339.7217,293.0752 c -0.904,3.83 -4.514,6.543 -8.589,6.543 -4.933,0 -9.009,-4.058 -9.009,-9.035 0,-4.948 4.076,-9.026 9.009,-9.026 4.075,0 7.685,2.731 8.589,6.561 h 24.371 l 1.164,4.957 z"
                     style="fill:#b28c50;fill-opacity:1;fill-rule:nonzero;stroke:none"
                     id="path44"
                     inkscape:connector-curvature="0" /><path
                     d="m 484.6045,279.3096 11.495,-11.497 h 25.015 c 1.373,3.394 4.515,5.86 8.591,5.86 4.954,0 8.792,-4.049 8.792,-8.789 0,-4.953 -3.838,-9.026 -8.792,-9.026 -4.536,0 -8.127,2.932 -8.809,6.985 h -26.822 l -11.499,11.737 h -1.589 l -1.111,4.73 z"
                     style="fill:#b28c50;fill-opacity:1;fill-rule:nonzero;stroke:none"
                     id="path46"
                     inkscape:connector-curvature="0" /><path
                     d="m 485.7041,306.5937 11.734,11.521 h 27.069 c 0.908,4.052 4.519,7.204 8.807,7.204 4.941,0 9.014,-4.051 9.014,-9.009 0,-4.979 -4.073,-8.809 -9.014,-8.809 -3.831,0 -7.219,2.25 -8.366,5.857 h -25.46 l -11.515,-11.713 h -13.344 l -1.162,4.949 z"
                     style="fill:#b28c50;fill-opacity:1;fill-rule:nonzero;stroke:none"
                     id="path48"
                     inkscape:connector-curvature="0" /><path
                     d="m 502.1777,293.0752 c 0.903,3.83 4.513,6.543 8.587,6.543 4.934,0 9.009,-4.058 9.009,-9.035 0,-4.948 -4.075,-9.026 -9.009,-9.026 -4.074,0 -7.684,2.731 -8.587,6.561 h -24.372 l -1.163,4.957 z"
                     style="fill:#b28c50;fill-opacity:1;fill-rule:nonzero;stroke:none"
                     id="path50"
                     inkscape:connector-curvature="0" /></g></g></g></g></g></g></g></g></svg>